HIERARCHY
ROOT Hips
{
	OFFSET 0.000000 0.000000 0.000000
	CHANNELS 6 Xposition Yposition Zposition Zrotation Yrotation Xrotation 
	JOINT LowerBack
	{
		OFFSET 0.000000 0.000000 0.000000
		CHANNELS 3 Zrotation Yrotation Xrotation
		JOINT Spine
		{
			OFFSET 0.028270 2.035590 -0.193380
			CHANNELS 3 Zrotation Yrotation Xrotation
			JOINT Spine1
			{
				OFFSET 0.056720 2.048850 -0.042750
				CHANNELS 3 Zrotation Yrotation Xrotation
				JOINT Neck
				{
					OFFSET 0.000000 0.000000 0.000000
					CHANNELS 3 Zrotation Yrotation Xrotation
					JOINT Neck1
					{
						OFFSET -0.054170 1.746240 0.172020
						CHANNELS 3 Zrotation Yrotation Xrotation
						JOINT Head
						{
							OFFSET 0.104070 1.761360 -0.123970
							CHANNELS 3 Zrotation Yrotation Xrotation
							End Site
							{
								OFFSET 0.000000 0.000000 0.000000
							}
						}
					}
				}
				JOINT LeftShoulder
				{
					OFFSET 0.000000 0.000000 0.000000
					CHANNELS 3 Zrotation Yrotation Xrotation
					JOINT LeftArm
					{
						OFFSET 3.362410 1.200890 -0.311210
						CHANNELS 3 Zrotation Yrotation Xrotation
						JOINT LeftForeArm
						{
							OFFSET 4.983000 -0.000000 -0.000000
							CHANNELS 3 Zrotation Yrotation Xrotation
							JOINT LeftHand
							{
								OFFSET 3.483560 -0.000000 -0.000000
								CHANNELS 3 Zrotation Yrotation Xrotation
								JOINT LeftFingerBase
								{
									OFFSET 0.000000 0.000000 0.000000
									CHANNELS 3 Zrotation Yrotation Xrotation
									JOINT LeftHandIndex1
									{
										OFFSET 0.715260 -0.000000 -0.000000
										CHANNELS 3 Zrotation Yrotation Xrotation
										End Site
										{
											OFFSET 0.000000 0.000000 0.000000
										}
									}
								}
								JOINT LThumb
								{
									OFFSET 0.000000 0.000000 0.000000
									CHANNELS 3 Zrotation Yrotation Xrotation
									End Site
									{
										OFFSET 0.000000 0.000000 0.000000
									}
								}
							}
						}
					}
				}
				JOINT RightShoulder
				{
					OFFSET 0.000000 0.000000 0.000000
					CHANNELS 3 Zrotation Yrotation Xrotation
					JOINT RightArm
					{
						OFFSET -3.136600 1.374050 -0.404650
						CHANNELS 3 Zrotation Yrotation Xrotation
						JOINT RightForeArm
						{
							OFFSET -5.241900 -0.000000 -0.000000
							CHANNELS 3 Zrotation Yrotation Xrotation
							JOINT RightHand
							{
								OFFSET -3.444170 -0.000000 -0.000000
								CHANNELS 3 Zrotation Yrotation Xrotation
								JOINT RightFingerBase
								{
									OFFSET 0.000000 0.000000 0.000000
									CHANNELS 3 Zrotation Yrotation Xrotation
									JOINT RightHandIndex1
									{
										OFFSET -0.622530 -0.000000 -0.000000
										CHANNELS 3 Zrotation Yrotation Xrotation
										End Site
										{
											OFFSET 0.000000 0.000000 0.000000
										}
									}
								}
								JOINT RThumb
								{
									OFFSET 0.000000 0.000000 0.000000
									CHANNELS 3 Zrotation Yrotation Xrotation
									End Site
									{
										OFFSET 0.000000 0.000000 0.000000
									}
								}
							}
						}
					}
				}
			}
		}
	}
}
}
MOTION
Frames: 17
Frame Time: 0.008333
8.135784 14.721810 1.790708 82.790717 -83.042703 -35.448471 -3.541098 -1.280051 -9.522285 -1.346707 -1.213778 -5.111904 -4.540055 -1.484107 -0.178173 4.082285 -2.005652 -10.351894 -2.392022 -0.121018 -1.183381 0.000000 0.000000 0.000000 -2.148618 -0.059914 4.752137 -59.723235 -27.482711 -18.165888 -0.850779 -3.875135 -0.112954 32.945284 -7.813607 -2.394414 -0.127390 0.240126 -0.000000 0.000000 0.000000 0.000000 0.000000 0.000000 0.000000 4.913318 0.861199 4.139393 72.754111 17.463895 -23.091909 0.278430 11.689131 -0.079166 -27.165512 17.626251 -4.394816 0.178709 -0.306042 0.000000 0.000000 0.000000 0.000000 0.000000 0.000000 0.000000 
7.942368 14.970920 1.760681 83.867454 -83.205568 -38.674725 -3.747901 -1.151492 -8.798335 -1.335974 -1.040297 -4.908758 -4.385235 -1.290544 -0.183152 3.577895 -2.239693 -9.746746 -2.195338 -0.114768 -0.959972 0.000000 0.000000 0.000000 -1.519956 -0.082894 4.474081 -59.626122 -27.916784 -14.200738 -1.165612 -8.590588 -0.114770 32.499213 -6.288489 -1.916881 -0.169411 0.248416 -0.000000 0.000000 0.000000 0.000000 0.000000 0.000000 0.000000 3.589005 0.773178 3.808941 72.530447 18.265678 -18.541221 0.487598 14.753708 -0.078457 -26.854563 16.695006 -4.117722 0.195488 -0.311233 0.000000 0.000000 0.000000 0.000000 0.000000 0.000000 0.000000 
7.741102 15.230865 1.732370 84.608285 -83.394697 -41.615160 -3.886004 -1.034313 -8.052181 -1.315002 -0.888015 -4.705972 -4.250705 -1.117468 -0.185601 3.146844 -2.438573 -9.092723 -2.021728 -0.111715 -0.725587 0.000000 0.000000 0.000000 -0.926233 -0.141699 4.185179 -59.225927 -28.115585 -10.515250 -1.409346 -13.518375 -0.117596 32.094335 -4.995474 -1.520822 -0.209074 0.255863 -0.000000 0.000000 0.000000 0.000000 0.000000 0.000000 0.000000 2.408061 0.709337 3.476309 71.979759 18.933954 -14.266647 0.651313 18.011443 -0.078537 -26.615467 15.622067 -3.822223 0.212184 -0.314978 0.000000 0.000000 0.000000 0.000000 0.000000 0.000000 0.000000 
7.532171 15.500184 1.706241 84.955618 -83.615051 -44.172973 -3.951316 -0.929848 -7.305707 -1.284549 -0.758342 -4.503556 -4.139705 -0.966635 -0.165499 2.799831 -2.634372 -8.413227 -1.871817 -0.111407 -0.488260 0.000000 0.000000 0.000000 -0.383044 -0.143308 3.884560 -58.562178 -28.321167 -7.392283 -1.564285 -18.288039 -0.120853 31.715311 -4.177345 -1.271345 -0.244281 0.264338 -0.000000 0.000000 0.000000 0.000000 0.000000 0.000000 0.000000 1.395954 0.618948 3.140716 71.114233 19.572274 -10.464127 0.764165 21.312045 -0.079400 -26.411198 14.493197 -3.522924 0.227886 -0.317706 0.000000 0.000000 0.000000 0.000000 0.000000 0.000000 0.000000 
7.316402 15.777182 1.682441 84.907408 -83.868835 -46.309919 -3.949046 -0.837321 -6.580135 -1.246504 -0.649315 -4.307643 -4.050673 -0.836786 -0.127615 2.534595 -2.807097 -7.712825 -1.746971 -0.113710 -0.250225 0.000000 0.000000 0.000000 0.134372 -0.093724 3.572443 -57.734467 -28.572448 -4.893450 -1.634091 -22.754942 -0.124164 31.384491 -3.840891 -1.165960 -0.274158 0.274844 -0.000000 0.000000 0.000000 0.000000 0.000000 0.000000 0.000000 0.554513 0.512753 2.806806 69.982205 20.185636 -7.304255 0.824493 24.591113 -0.081072 -26.195372 13.353008 -3.223932 0.241666 -0.319989 0.000000 0.000000 0.000000 0.000000 0.000000 0.000000 0.000000 
7.094708 16.059651 1.661005 84.486128 -84.156536 -48.004858 -3.884834 -0.756310 -5.901294 -1.202190 -0.559421 -4.124437 -3.980868 -0.727030 -0.075454 2.345632 -2.950857 -7.002965 -1.646255 -0.118205 -0.015390 0.000000 0.000000 0.000000 0.646564 0.008018 3.249418 -56.834470 -28.876577 -2.985966 -1.632184 -26.857894 -0.127482 31.135551 -3.899594 -1.177078 -0.298691 0.287702 -0.000000 0.000000 0.000000 0.000000 0.000000 0.000000 0.000000 -0.125831 0.392003 2.477892 68.643505 20.778381 -4.858627 0.836588 27.794906 -0.083493 -25.940334 12.226304 -2.928148 0.252995 -0.322241 0.000000 0.000000 0.000000 0.000000 0.000000 0.000000 0.000000 
6.868223 16.345056 1.641742 83.758869 -84.473156 -49.280571 -3.770261 -0.686287 -5.296075 -1.153944 -0.486759 -3.959451 -3.927397 -0.635955 -0.010979 2.226184 -3.077220 -6.300769 -1.567397 -0.124300 0.211122 0.000000 0.000000 0.000000 1.167513 0.161538 2.916832 -55.927005 -29.221386 -1.614308 -1.573860 -30.591263 -0.131048 30.995367 -4.230678 -1.269104 -0.318408 0.302750 -0.000000 0.000000 0.000000 0.000000 0.000000 0.000000 0.000000 -0.658337 0.245540 2.157521 67.155688 21.363979 -3.115351 0.808496 30.871031 -0.086542 -25.638753 11.123323 -2.638578 0.261730 -0.324671 0.000000 0.000000 0.000000 0.000000 0.000000 0.000000 0.000000 
6.637943 16.630576 1.624456 82.824569 -84.809481 -50.186407 -3.619041 -0.627207 -4.794714 -1.104036 -0.429965 -3.818922 -3.886498 -0.562662 0.062668 2.165009 -3.196638 -5.624022 -1.507319 -0.131373 0.424499 0.000000 0.000000 0.000000 1.703145 0.358978 2.577906 -55.052606 -29.576382 -0.737868 -1.472957 -33.985462 -0.135219 30.967522 -4.713175 -1.408248 -0.334037 0.319632 -0.000000 0.000000 0.000000 0.000000 0.000000 0.000000 0.000000 -1.063946 0.068007 1.850001 65.569843 21.951504 -2.031318 0.749238 33.776860 -0.090060 -25.289607 10.053656 -2.358523 0.267917 -0.327448 0.000000 0.000000 0.000000 0.000000 0.000000 0.000000 0.000000 
6.405214 16.913433 1.608855 81.810952 -85.150802 -50.809221 -3.448720 -0.579460 -4.422508 -1.055149 -0.387967 -3.707981 -3.853991 -0.506428 0.141851 2.148570 -3.322438 -4.991072 -1.462566 -0.138815 0.620248 0.000000 0.000000 0.000000 2.252207 0.586503 2.237140 -54.229273 -29.907093 -0.328763 -1.340984 -37.089149 -0.140363 31.031979 -5.238625 -1.564511 -0.346312 0.337958 0.000000 0.000000 0.000000 0.000000 0.000000 0.000000 0.000000 -1.366389 -0.145251 1.560532 63.926025 22.555439 -1.539088 0.667762 36.471916 -0.093898 -24.899804 9.029017 -2.092179 0.271760 -0.330725 0.000000 0.000000 0.000000 0.000000 0.000000 0.000000 0.000000 
6.171182 17.191033 1.594635 80.841209 -85.479608 -51.235570 -3.276670 -0.544367 -4.200173 -1.009657 -0.360769 -3.630665 -3.825824 -0.467507 0.223399 2.162147 -3.466647 -4.419495 -1.429859 -0.146089 0.794486 0.000000 0.000000 0.000000 2.805460 0.830097 1.900426 -53.455389 -30.183714 -0.366415 -1.187650 -39.956375 -0.146731 31.149002 -5.716447 -1.711395 -0.355856 0.357343 0.000000 0.000000 0.000000 0.000000 0.000000 0.000000 0.000000 -1.589086 -0.396434 1.294501 62.251237 23.192495 -1.562494 0.571956 38.920837 -0.097916 -24.481544 8.065602 -1.844751 0.273560 -0.334679 -0.000000 0.000000 0.000000 0.000000 0.000000 0.000000 0.000000 
5.937589 17.461603 1.581456 80.022080 -85.780385 -51.562046 -3.116018 -0.523016 -4.123564 -0.969028 -0.348339 -3.586881 -3.798484 -0.445844 0.300033 2.190936 -3.629084 -3.921280 -1.406455 -0.152812 0.944942 0.000000 0.000000 0.000000 3.348115 1.063644 1.575358 -52.712433 -30.372847 -0.842963 -1.020289 -42.648558 -0.154468 31.267066 -6.072194 -1.825003 -0.363091 0.377464 -0.000000 0.000000 0.000000 0.000000 0.000000 0.000000 0.000000 -1.754315 -0.674077 1.058303 60.558955 23.871429 -2.037856 0.467434 41.100223 -0.102053 -24.049112 7.184950 -1.622133 0.273612 -0.339632 -0.000000 0.000000 0.000000 0.000000 0.000000 0.000000 0.000000 
5.705542 17.723862 1.569020 79.396802 -86.042820 -51.827345 -2.973132 -0.516708 -4.183268 -0.933646 -0.351414 -3.573985 -3.770878 -0.441965 0.370352 2.224971 -3.817504 -3.509350 -1.390615 -0.158680 1.069144 0.000000 0.000000 0.000000 3.854034 1.285523 1.269744 -51.967832 -30.480763 -1.728887 -0.846391 -45.204693 -0.163510 31.336131 -6.249037 -1.885533 -0.368363 0.397901 0.000000 0.000000 0.000000 0.000000 0.000000 0.000000 0.000000 -1.873284 -0.977649 0.855817 58.848797 24.611601 -2.889930 0.358532 42.990369 -0.106271 -23.624492 6.409968 -1.429726 0.272306 -0.345835 -0.000000 0.000000 0.000000 0.000000 0.000000 0.000000 0.000000 
5.476642 17.977399 1.556989 78.984217 -86.262966 -52.073615 -2.849095 -0.525051 -4.347577 -0.902962 -0.369195 -3.585733 -3.742660 -0.454649 0.429104 2.256291 -4.025655 -3.188537 -1.380898 -0.163532 1.166617 0.000000 0.000000 0.000000 4.299185 1.486440 0.991271 -51.184350 -30.512271 -2.995270 -0.671867 -47.661132 -0.173667 31.316389 -6.207523 -1.878484 -0.371900 0.418197 0.000000 0.000000 0.000000 0.000000 0.000000 0.000000 0.000000 -1.956432 -1.292762 0.690181 57.112787 25.411959 -4.064553 0.247109 44.592934 -0.110619 -23.229798 5.762158 -1.271829 0.269991 -0.353622 0.000000 0.000000 0.000000 0.000000 0.000000 0.000000 0.000000 
5.251813 18.221804 1.545071 78.798598 -86.439934 -52.335275 -2.743934 -0.546810 -4.588554 -0.876373 -0.400169 -3.615999 -3.714027 -0.481990 0.474667 2.280254 -4.249077 -2.960671 -1.375658 -0.167246 1.237567 0.000000 0.000000 0.000000 4.663933 1.673424 0.745487 -50.329136 -30.493273 -4.591435 -0.502443 -50.036000 -0.184587 31.188377 -5.927667 -1.796955 -0.373988 0.437780 0.000000 0.000000 0.000000 0.000000 0.000000 0.000000 0.000000 -2.012288 -1.609777 0.561030 55.340927 26.263499 -5.508014 0.133684 45.927000 -0.115208 -22.891382 5.255015 -1.150739 0.267085 -0.363223 0.000000 0.000000 0.000000 0.000000 0.000000 0.000000 0.000000 
5.032319 18.456606 1.532994 78.892400 -86.575392 -52.697658 -2.657281 -0.579259 -4.866790 -0.852948 -0.441159 -3.657317 -3.683035 -0.520401 0.502651 2.290417 -4.474303 -2.820451 -1.371474 -0.169688 1.283823 0.000000 0.000000 0.000000 4.943224 1.849809 0.535599 -49.382054 -30.444015 -6.465061 -0.342414 -52.340234 -0.195900 30.956055 -5.413104 -1.643746 -0.374961 0.456144 0.000000 0.000000 0.000000 0.000000 0.000000 0.000000 0.000000 -2.061668 -1.910105 0.466120 53.527870 27.135238 -7.181716 0.017283 47.032896 -0.120242 -22.636651 4.892315 -1.066455 0.264050 -0.374865 0.000000 0.000000 0.000000 0.000000 0.000000 0.000000 0.000000 
4.819107 18.681044 1.520599 79.335845 -86.672061 -53.260509 -2.588908 -0.619049 -5.146326 -0.831623 -0.488327 -3.703051 -3.645919 -0.565753 0.509903 2.279208 -4.688488 -2.758698 -1.363493 -0.170681 1.308065 0.000000 0.000000 0.000000 5.145445 2.025308 0.361590 -48.339251 -30.387551 -8.557985 -0.195207 -54.571880 -0.207246 30.646533 -4.693214 -1.431457 -0.375248 0.472912 0.000000 0.000000 0.000000 0.000000 0.000000 0.000000 0.000000 -2.134495 -2.177487 0.400373 51.675804 27.984824 -9.052068 -0.103405 47.964624 -0.125983 -22.494934 4.666140 -1.016776 0.261437 -0.388661 0.000000 0.000000 0.000000 0.000000 0.000000 0.000000 0.000000 
4.613104 18.894171 1.507906 80.169776 -86.735455 -54.094414 -2.535527 -0.662166 -5.394541 -0.810600 -0.537387 -3.747422 -3.597601 -0.613565 0.494025 2.237996 -4.880482 -2.762845 -1.346268 -0.170053 1.313711 0.000000 0.000000 0.000000 5.290136 2.211761 0.220281 -47.213102 -30.342815 -10.814316 -0.063145 -56.721813 -0.218410 30.305974 -3.821882 -1.179984 -0.375345 0.487956 0.000000 0.000000 0.000000 0.000000 0.000000 0.000000 0.000000 -2.266093 -2.398953 0.356655 49.793582 28.762639 -11.089174 -0.229287 48.784191 -0.132746 -22.495792 4.558092 -0.998203 0.259878 -0.404597 0.000000 0.000000 0.000000 0.000000 0.000000 0.000000 0.000000 
